<?xml version="1.0" encoding="UTF-8"?>
<svg version="1.1" viewBox="0 0 1496 1220" width="1280" height="1280" xmlns="http://www.w3.org/2000/svg">
<path transform="translate(760,183)" d="m0 0h41l33 3 26 4 24 6 31 11 26 12 19 11 14 11 17 17 10 15 6 13 5 17 2 11 5 9 9 9 9 11 12 15 12 18 10 17 12 24 14 34 7 22 6 24 7 38v2l12 3 12 5 9 7 7 6 9 12 6 13 3 12v26l-2 32-2 15-6 19 2 9-1 17-4 13-8 10-12 9-2 5-1 5-6 9-8 7-16 8-12 3-7 1h-15l-19-1-7 9-10 13-9 11-4 5h-2l-2 4-16 16-8 7-8 8-14 11-15 12-15 10-26 15-25 12-20 8-23 7-36 8-35 5-12 1h-51l-21-2-29-5-35-9-23-8-24-11-20-10-28-17-19-14-11-9-14-12-24-24-9-11-12-15-9-12-4-4-12 1-8 1h-11l-15-2-13-4-10-7-7-8-4-7-3-8-9-8-8-7-4-5-4-10-1-8v-26l-6-18-1-8-1-30-1-12v-13l3-18 5-13 7-11 11-10 14-8 16-6 3-7 2-9 3-19 8-32 10-30 11-25 11-21 12-19 12-17 9-12 9-11 12-13 9-11 14-26 13-17 14-14 16-12 15-9 19-9 18-6 16-4 27-4 17-2 29-10 25-7 28-5z" fill="#2A2A2A"/>
<path transform="translate(762,192)" d="m0 0h22l46 5 25 5 19 6 31 13 14 8 14 10 4 2v2h9l4 2 9 6 10 9 8 9 7 11 8 16 3 9 1 5v24l-7 19-8 13-9 12-5 6-8 7-9 8-15 10-13 8-15 8-15 7-12 5-18 7-17 5-21 5-26 4-23 3-30 2h-15l-7-1-20-1-11-3-14-1-17-3-26-7-21-7h-3v2l5 2 4 2v1l-9-1-14-5-9-4-29-14-9-6-10-6-8-6-4-4v-2l-4-2-8-8-7-10-6-10-7-19-2-13v-8l4-18 6-13 10-16 9-11 7-7h2v-2l16-12 14-9 11-6 21-11 14-4 11 3-2 5-1 2h-2l-2 4-10 14-7 15-2 9-1 9v18l2 13 6 17 7 11 9 10 14 11 17 9 31 12 11 4 18 2h46l20-1 35-5 19-5 16-6 14-6 5-1 1 2h-2l-2 4-10 8-6 4-3 1v2l-11 7-3 1-1 2 11-6 5-2 12-8 11-8 11-10 9-11 6-9 5-11 3-9 1-6v-23l-2-8-7-16-7-10-11-12-13-10-9-4h-2l13 10 15 15 9 13 3 6 1 6-2 1-7-8-12-11-10-6-12-6-8-3-15-4-25-5-17-2h-37l-24 5-21 7-14 7-9 7-8 7-2 3v9l-1 9v12l3 12 12 9 16 9 14 5 5 2 1 5-3 3-7 1-12-5-4-1 8 5 5 3 2 2-1 5-6 4-9-1-14-7-8-5-6-5-5-5-5-9-4-12 1 10 6 12 11 14-1 2-10-3-12-6-16-12-7-6-8-14-3-9-3-19 1-13 3-12 8-16 11-12 8-7 9-6 10-6 16-6 10-3 4-2 13-3 6-2 21-4z" fill="#69696A"/>
<path transform="translate(990,389)" d="m0 0h2l2 7v11l-2 24-2 9-3 34-4 43-2 19-4 11-7 9-4 4-6 2h-5l-4-10-8-5-13-6-17-5-14-3-16-3h-45l-12 2-18 5-6 2-11 1-12-8-9-4-9-2-12-1h-10l-16 3-15 8h-7l-9-4-17-5-13-3-1-1-33-2h-35l-10 3-8 1-13 4-14 6-6 9-2 9-2 1-11-7-5-5-6-9-3-7-5-25-6-37-3-20-2-31-1-9 3-1 6 4 2 4h2v2l4 2 10 9 16 11 21 12 21 9 33 11 25 7 30 5 18 2 15 1h56l49-4 11-2h4v-2l32-8 21-6 36-14 22-12 16-10 17-12 16-15z" fill="#6A6A6B"/>
<path transform="translate(540,618)" d="m0 0 2 1 8 24 4 8 5 6 6 3h15l5-2 16 2h10l2 1 30 1 16 1h26l12-6 10-11 5 1-1 5-5 9-4 4 9-6 9-10 8-11 39-1 9-2 1-2 9 21 7 8 8 4 3 1h9l13 1 4 1 32 1h20l28 2h11l7-2 5-3h2l1-3 7-6 1-2h2l2-5 6-11h2l1 3 2 21 3 13 1 3v26l-2 15-7 14-7 6-5 5-8 5-10 5-9 3h-3l-1-4 1-2-23 8-21 7-18 5-24 5-14 2h-10l-1-4 15-13 5-4 10-15 7-16 5-12 3-2 10-1 1-2-4-2-10-9-11-16-3-4h-2l1 10v9l-16 8-21 7-19 4h-44l-26-4-19-7-16-8-8-5-2-3 2-8v-10l-2-1-2 4-5 9-6 7-15 11-1 3h14l3 1 7 21 6 13 7 11 8 10 1 3 3 1 2 5-4 1-7-1-6-2-21-6-12-5-11-5-8-2-5 1-16-5-16-8-16-9-6-5-7-10-3-12-5-31-1-9v-9l4-32z" fill="#FBFBFB"/>
<path transform="translate(546,750)" d="m0 0 10 4 18 10 30 13 20 7 25 7 15 4 8 2 9 1 13 3 10 2 49 7 10 2v4l-2 4 24-1 34-4 21-3 4 2 10 14 8 10 8 7 11 6 7 2h13l13-5 11-7 9-10 6-11 9-20 4-1 1 7-1 18-4 11-8 11-7 8-11 9-3 3-13 8-19 9-12 5-16 5-16 4-20 3-20 1h-36l-22-2-9-3-4-3-5 2-9-1-5-3-11-13-7-9-2-4h-2l-9-11-9-8-6-3 1 5 10 13 11 13 8 11v4h-10l-11-4-16-1v24l-2 2-8-1-3-5-3-16-7-14-12-7h-6l-4 3-2 7-2 17-4 1-5-3-1-7v-15l-4-12-6-9-10-6h-10l-4 5v21l-4 2-6-4-4-5-2-6v-13l1-16-5-9-3-51v-15z" fill="#A6A7A8"/>
<path transform="translate(1108,547)" d="m0 0h15l13 3 7 3v2l4 2 7 6 9 18 4 14v68l-5 13h-2l-2 5-2 4 4 2 2 5v14l-3 15-8 11-10 6-10 4 4 4 1 10-4 6-8 7-8 4-13 4h-32l-14-3-10-4-10-6-7-6-6-9-5-9-6 1-10-6-7-8-3-12 2-16 4-4 9-4 5-5 7-8 6-7 2-10 3-1 1-12 3-5 5-4 9-2 13 1 17 3h9l8 4 6 2 9 1v-2l-10-2-13-8-6-7-7-14v-33l3-9 6-10 6-7 9-6z" fill="#A6A7A8"/>
<path transform="translate(373,547)" d="m0 0h16l8 3 10 8 5 6 5 11 1 3 1 11v21l-2 10-5 10-9 9-8 4-14 3h9l18-5 24-3 15-1 10 3 3 3 3 15 4 16 5 4 7 10 3 7 5-1 6 2 4 4 2 8v7l-3 13-2 5-8 6-3 1h-7l-3-1-2 8-6 9-4 5-13 9-10 4-11 3-15 1h-13l-15-2-17-8-6-7-2-3v-11l3-4-19-10-6-8-3-9-1-5v-20l3-5 5-1-4-5v-2l-4-2-4-11-1-11v-63h2l1-4 8-16 7-8 8-7 12-6h2v-2z" fill="#A5A6A7"/>
<path transform="translate(519,559)" d="m0 0h6l15 9 2 4v16l1 23 4 14 6 12 9 10 10 4 7 2 60 2 14 1h19l12-3 10-6 8-10 6-13 1-1h12l26 2h20l10-1v-2h2l5 8 4 13 6 8v2l5 1 8 5 10 2v2l27 1 71 1 10-2 8-5 7-7 7-16 5-24 1-3 1-23 3-5 16-6h4l-2 6-10 10-5 10-4 12 2 15 1 5 2 31 3 13 3 10-2 28-3 14-4 9-6 8-9 8-12 6-12 4-10 4-33 11-26 6-13 2-14 1-9 2-10 1h-62l-17-1-3-1-19-2-11-2-13-1-33-8-26-8-21-8-21-9-17-9-11-9-7-11-4-10-6-37-1-17 4-31v-16l-2-10-4-9-8-7-3-12-1-10zm21 59-2 10-3 26v11l7 43 3 9 7 9 10 7 12 7 11 5 16 6 6 1 4-1 11 4 14 6 21 7 10 2 1 1 8 1 3-1-2-5-3-1-2-4-10-13-6-11-7-17-4-13-3-1h-14l2-4 11-8 5-5 6-7 5-8v-2l2 1v10l-2 9 6 5 16 8 11 5 12 4 16 3 10 1h44l22-5 18-6 16-8v-9l-1-10 4 2 7 11 8 10 9 8h2l-1 2-10 1-4 3-5 14-8 16-9 13-11 9-8 7 1 4h10l24-4 21-5 24-7 25-9 6-2-1 4 1 2 9-2 10-4 10-6 5-4 5-5 6-8 4-9 2-15v-26l-2-5-3-17-1-15-1-3-3 1-6 12-1 3h-2l-6 7-3 2v2l-5 2-4 2-5 1h-11l-31-2h-25l-26-1-4-1-12-1h-8l-10-4-7-7-9-20-2-3v2l-9 2-39 1-13 17-6 6-7 4 5-6 5-9-1-4-5 1-9 10-12 6h-34l-15-1-23-1-2-1h-14l-8-1-4-1-7 2h-13l-7-4-6-8-5-14-5-15z" fill="#A5A6A7"/>
<path transform="translate(762,192)" d="m0 0h22l46 5 25 5 19 6 31 13 14 8 12 9 18 18v2h2l9 16 4 11 2 11v14l-3 13-7 13-8 12-4 5-7 4-1-6 3-10 1-5v-8l-2-1-3 12-4 6-2-1 1-12 1-22-4-23-6-13-6-10h-2v28l-1 5-6 1-2-13-8-16-7-9-9-10-8-8-10-7-17-9-22-6-8-1v3l14 7 6 4 1 4-9-1-15-3-17-1-5 2-1 1-44 1-27 5-23 8-14 8-13 10-10 12-7 12-5 13-1 6v13l4 13 7 11 3 5-6-1-12-6-18-14-6-7-6-12-3-11-1-6v-17l3-13 8-16 11-12 9-8 11-7 16-8 14-5 16-4 17-4h4v-2l11-2h8v-2z" fill="#A6A7A8"/>
<path transform="translate(544,747)" d="m0 0 6 1 10 6 21 9 12 5 15 6 24 8 25 7 27 6 28 5 38 4 18 1 21-3 30-2 31-4 25-5 35-10 23-8 14-7 5-2h6l1 2v15l-3 46-2 11-2 18-4 6-11 8-7 4-13 8-15 8-23 10-30 10-32 8-29 4-16 2-14 1h-29l-34-4-41-7-13-5-13-3-14-6-10-3-14-8-9-4-10-6-11-6-7-6-4-7-2-10-1-25-1-3-2-52-1-20zm2 3-1 2v15l3 51 5 9-1 16v13l4 9 6 5 3 1 3-2v-21l4-5h10l10 6 6 9 4 13v17l2 5 5 2 3-1 3-21 3-5 2-1h6l12 7 7 14 3 16 3 5 8 1 2-2v-24l16 1 11 4h10l-1-6-11-13-11-14-7-10v-3l7 4 9 8 8 10h2l2 4 9 11 11 13 8 2 8-1h2l8 4 12 2 14 1h36l20-1 26-4 24-7 13-5 16-8 11-6 8-5 5-5 7-6 7-8 6-8 5-10 1-4 1-23-1-2-4 1-10 23-7 10-7 8-11 7-13 5h-13l-10-3-12-8-7-7-13-18-3-4-4-1-43 6-29 2h-6l3-5-1-3-24-4-35-5-10-2-13-3-12-2-18-4-16-5-18-5-20-8-25-11-22-12z" fill="#6A6A6B"/>
<path transform="translate(603,224)" d="m0 0 3 1-6 7-5 5 7-6 6-4 4 1-1 4-10 14-5 9-5 12-2 8v29l4 16 8 16 9 11 8 8 9 7 16 8 17 7 8 5v1h-9l-16-3-36-9-21-9-12-7-10-8-8-9-5-10-3-10-1-19-2 3v21l5 13 7 11 9 8 8 5 23 11 24 8 26 5 17 2 16 1 9 2 12 1h56l16-1 38-6 17-5 18-6h3l-1 3-14 7-10 4-32 8-14 2-25 3h-64l-20-1-22-2-12-2h-15l3 3 23 11 19 7 24 6 3 3-1 1h-13l-27-4-18-4-13-4-21-8-7-3 5 5 17 10 28 14 7 3 15 7v3l-15-3-17-5-12-4-17-7-12-7-11-6-17-12-12-11-15-15-14-19-11-16-3-2 2 18 3 9-1 4-4-1-7-14-4-15v-13l4-16 8-16 9-14 11-12 3-5 16-12 14-9 9-3 19-10z" fill="#A5A6A7"/>
<path transform="translate(751,255)" d="m0 0h26l22 2 22 5 19 8 17 9 10 9 6 9 4 11v11l-3 9-8 10h-2v2l-16 10-33 11-18 4-18 3-36 2-16-1-2-1 1-6 6-10 5-11v-14l-15-5-13-4-7-4h-6l-9-6-4-6v-13l5-10 8-8 11-6 12-5 19-4z" fill="#6A6A6B"/>
<path transform="translate(985,444)" d="m0 0h2v11l-8 79-5 11-7 8-5 2-6-9-10-5-25-9-13-4-22-4-6-1h-37l-22 3-20 5-2 1-9-1-7-3-8-1h-10l-16-2h-10l-16 3-15 8h-7l-9-4v-2l-20-8-10-3-27-3h-25l-18 1-24 4-21 6-9 1-7-5-7-10-1 13-3 2-3-3-6-19-6-34v-8h8l12 6 20 8 4 1-2-4 1-5 3-3 2-6v-6l-1-1v-5l3-1 11 6 1 3-2 3-5 3-3 7 2 3 1 10 1 4-4 4-2 1-1 3h50l16 1 3 2-10 4-9 3 12-2 16-3h22l39 5 30 2h90l16 2 47 4h4l-12-3v-3h22l34 7h16l10-3-5-6-10-6-19-8-2-3 8-5 16-8 17-9 16-11 10-9z" fill="#A5A6A7"/>
<path transform="translate(657,672)" d="m0 0 3 1v10l-2 9 5 4 16 8 11 5 12 4 16 3 10 1h44l22-5 22-6 12-6 1-1-1-18 2 1 6 12 8 10 4 3v2h-9l-8 16-10 18-7 9-11 11-16 10-13 5-15 3-8 1h-13l-27-5-19-8-11-8-6-5-11-15-8-16-8-18-3-6-5-2 3-5 7-8 4-10z" fill="#2A2A2A"/>
<path transform="translate(1051,550)" d="m0 0 11 1 10 4 5 5-5 15-3 13v22l4 13 4 8v5l-11-1-5-1h-21l-7 1-1-5 3-4h-6l-1 25-6 16-8 11-10 10-5 2h-14l-8-5-5-6-4-11-4-40v-24l4-10 8-9 7-6 16-8 13-6 12-4 21-10z" fill="#FCFCFC"/>
<path transform="translate(435,551)" d="m0 0h13l12 5 15 8 19 8 2 1v2l6 2 13 7 7 6 5 9v2h2l1 3v24l-4 36-4 13-4 7h-2v2l-8 4h-12l-8-4-5-5-8-9-6-10-3-7-1-5-1-24h-4v7l-1 2-18-2-11 1-6 2h-7l-1-1v-5l3-4 5-13 2-11-1-13-6-21-1-2v-7l6-4z" fill="#FCFCFC"/>
<path transform="translate(374,548)" d="m0 0h12l9 3 13 12 6 12v18l-3 10-3 8h-2l-1 7-3 4h-2v2l-10 6-6 2-18 3-9-1-7-1 3 8 12 6 5 1h21l16-4 21-3h14l7 5 3 8v7l-2 6-7 9-11 7-8 3-10 1-4-1-1-4 7-5 1-2-26 5-10 1h-19l-12-3-10-8-4-5-3-7-1-32-1-12v-24l2-8 7-13 11-11 10-6 7-3z" fill="#FCFCFC"/>
<path transform="translate(1110,548)" d="m0 0h12l11 4 10 7 10 10 8 16 2 7v24l-1 12-1 30-6 11-5 5-6 4-10 3-14 1-20-2-22-4h-2l2 4 2 1-1 4h-10l-12-5-5-3-7-9-2-4v-11l4-7 5-4 3-1h10l8 2 15 1 13 4 5 1h15l9-2 12-6 3-6-3-1-2-1-5 1h-9l-8-2h-8l-13-5-5-5-3-4-4-10-4-8-1-3v-19l3-7 3-6 9-10 10-6z" fill="#FCFCFC"/>
<path transform="translate(751,255)" d="m0 0h26l22 2 22 5 19 8 17 9 10 9 6 9 4 11v11l-3 9-8 10h-2v2l-6 4-10 4-14 5-25 7-10 1-1-3 7-12 5-16 4-26 2-1 10 3 7 1v-4l-4-4v-2l-5-2-11-5-18-4-11-1h-24l-3-2h-11l-17 4-16 8-4 5-5 8-4-1-1-2v-7l3-6 8-6 14-6 23-6 12-2h37l17 3 14 4-12-6-14-4-10-1h-36l-14 2-17 4-12 5-10 7-6 7-1 9v8l-5-1-6-8v-11l5-12 7-7 11-6 12-5 19-4z" fill="#A5A6A7"/>
<path transform="translate(1130,549)" d="m0 0 6 1 7 3v2l4 2 7 6 9 18 4 14v68l-5 13h-2l-2 5-2 4 4 2 2 5v14l-3 15-8 11-10 6-10 4 4 4 1 10-4 6-8 7-8 4-13 4h-32l-14-3-10-4-10-6-7-6-6-9-5-9-6 1-10-6-7-8-3-12 2-16 4-4 9-4 5-5 7-8 6-7 2-10 2-1v17l-5-1-4 5-9 13-13 4-2 5-1 5v10l4 10 5 5 7 4 4-1 1-16-4-10v-3h2v2h2l6 9 1 3 4 2v2l4 2 9 5 10 4 20 3 21 1h24l15-2 14-7 5-5h2l2-6 3-8 1-4v-14l-2-5-5 1-17 6-16 3-9 1h-33l4-2 21-1 15-2 6-2 12-2 10-4 9-6 3-1 1-4 4-8 2-7 1-45v-19l-3-14-6-12-4-6-5-5-9-7-7-3z" fill="#69696A"/>
<path transform="translate(328,591)" d="m0 0h1l2 68 4 14 7 9 10 5 15 5 25 4h37v2l-8 2-11 1h-20l-13-1-20-5-16-6h-4l-1 5v17l3 10 6 8 9 6 10 4 15 2h18l4-1 22-1 20-4 12-4 8-5 5-5 7-11 3-5 2 4-3 11v16h7l5-2 7-6-2 5-8 6-3 1h-7l-3-1-2 8-6 9-4 5-13 9-10 4-11 3-15 1h-13l-15-2-17-8-6-7-2-3v-11l3-4-19-10-6-8-3-9-1-5v-20l3-5 5-1-4-5v-2l-4-2-4-11-1-11z" fill="#6A6A6B"/>
<path transform="translate(464,681)" d="m0 0h4l4 6 1 10-5 10-3 1v2l-9 6-11 6-2 2-7 3-12 2-22 2-6-1h-17l-1 2-7 1-14-4-11-6-5-5-3-6-1-12 2-7 3-1 17 6 13 3 15 2h31l21-5 9-4 8-6z" fill="#FCFCFC"/>
<path transform="translate(736,548)" d="m0 0h13l18 4 12 4 2 4-1 46h-37l-21-1-9-1-1-2 2-36 2-12 8-3z" fill="#A5A6A7"/>
<path transform="translate(1026,681)" d="m0 0 5 1 10 9 14 7 19 5 20 1 22-2 19-4 17-6h3l1 3v8l-2 10-6 8-6 5-14 6-9-1v-2h-51l-12-3-8-4-4-3-5-3-11-6-7-9-1-9 5-10z" fill="#FCFCFC"/>
<path transform="translate(1051,550)" d="m0 0 11 1 10 4 5 5-5 15-3 13v22l4 13 4 8v5l-11-1-5-1h-21l-7 1-1-5 3-4h-6l-1 25-6 16-8 11-10 10-5 2h-14l-8-5-5-6-4-11-4-40v-24l4-10 8-9 7-6 16-8 13-6 12-4 21-10zm-4 2-7 3-22 11-13 5-15 7-9 5-8 7-6 10-2 8 2 21 2 10 1 15 3 9 4 3 13-1v6l1 2h5l5-4 7-12 5-5 4-2 3-5 1-6v-13l-4-14-2-6h5l10 7 8-1 8-4v-2l4-2 7-8 5-5 4-8 4-13 4-8-1-4-7-4-5-2z" fill="#A6A7A8"/>
<path transform="translate(435,551)" d="m0 0h13l12 5 15 8 19 8 2 2-5-1-20-8-19-10-3-1h-14l-13 5-1 4 5 10 7 17 3 4v3l3 1 5 6 3 2v2l4 1 7 3h6l3-1 1-3 6-3h6l1 3-5 10-3 11v15l1 8h2v2l8-1 8 15 4 4 8 2v-8l4-1 8 1 4-2 2-4 4-32 2-13v-14l2 3v24l-4 36-4 13-4 7h-2v2l-8 4h-12l-8-4-5-5-8-9-6-10-3-7-1-5-1-24h-4v7l-1 2-18-2-11 1-6 2h-7l-1-1v-5l3-4 5-13 2-11-1-13-6-21-1-2v-7l6-4z" fill="#A6A7A8"/>
<path transform="translate(950,774)" d="m0 0h4l1 4-3 9-8 20-3 3-3 6-11 13-8 7-8 5-6 2h-12l-8-4-9-8v-2h-2l-9-14-1-2v-6l4-3 22-7 15-5 10 1 8-3 11-6z" fill="#A6A7A8"/>
<path transform="translate(710,243)" d="m0 0m15-47h10v1l-14 2h-5v2l-24 6-19 5-19 8-13 8-10 8-9 9-7 11-5 12-2 10v17l3 14 5 12 7 9 14 11 9 6 9 4h3l-7-10-5-10-2-8v-13l3-12 7-14 7-10 9-10 16-11 14-7 6-2h4v2l-18 7-14 9-10 9-2 3v9l-1 9v12l3 12 12 9 16 9 14 5 5 2 1 5-3 3-7 1-12-5-4-1 8 5 5 3 2 2-1 5-6 4-9-1-14-7-8-5-6-5-5-5-5-9-4-12 1 10 6 12 11 14-1 2-10-3-12-6-16-12-7-6-8-14-3-9-3-19 1-13 3-12 8-16 11-12 8-7 9-6 10-6 16-6 10-3 4-2 13-3 6-2z" fill="#69696A"/>
<path transform="translate(823,541)" d="m0 0h7l3 19 6 23 8 20 9 17 7 11v3h2v3h2l5 9v2h2l1 3 3 2-1 4-23-1-5-4-1-4h-2l-1-4h-2v-3h-2l-4-8v-2h-2l-12-24-3-5-4-11-3-8-6-20-1-1-2-15 9-3 9-2z" fill="#F9F9F9"/>
<path transform="translate(1115,545)" d="m0 0 13 2 2 2-7-1h-15l-9 3-6 4-6 5-7 11-3 6-1 5v33l7 14 6 7 12 7 10 3v2h-9l-10-4-4-2h-10l-23-4-13 1-6 4-3 5-2 12h-2v-8l-5 14-6 10-11 12-4 3-4 1h-14l-8-4-7-8-3-7-2-20-2-15-1-22 1-14 3-9-5 10-2 7 1 17 1 8 1 23 3 17 4 10-2 26-2 15-5 12-7 9-7 7-10 6-17 6-18 6-31 9-27 6-24 3-9 2h-75l-30-4-22-4v-1h9l18 3 12 1 3 1 17 1h62l15-2 4-1 21-2 16-3 19-5 36-12 18-7 10-5 11-10 6-11 3-10 3-32-2-11-3-9-1-6-2-31-2-15-1-5 6-17 6-8 7-7 3-6-15 5-6 3-1 3-1 23-5 22-4 13-5 9-9 9-9 4-7 1-71-1-19-1-8-1v-1l31 1h72l12-6 7-8 6-14 3-11 3-17 2-24 5-5 16-6 5 1-1 5-5 7 6-2-5 5-6 8-3 8v24l4 40 5 12 5 6 6 3h14l6-3 10-10 7-11 5-14 1-23 3-3 5 1-3 4v4l7-1h21l16 3-3-9-4-10-2-7v-22l5-20 3-8-4-4-10-4-11-1-9 2-20 10-2-1 13-8 8-4 5-1h10l11 2 9 5 4 5h2l3-1v-2l4-3h2v-2l10-6 3-1z" fill="#6A6A6B"/>
<path transform="translate(575,534)" d="m0 0h4l2 8 5 21 7 21 7 16 3 5v3h2l8 15 11 16 1 4h2l1 4h-24l-3-1v-3h-2l-1-3-2-1v-3h-2l-4-7v-2l-3-1-4-10-8-14-7-16-5-14-7-27 1-5z" fill="#FAFAFA"/>
<path transform="translate(369,546)" d="m0 0h22l8 3 8 6v2h2l4 5 2 1 2-5 4-4 16-5h8l10 3 16 8 17 8 16 8 16 9 8 11 3 7v32l-2 15-2 20-5 13-9 8-3 1h-14l-8-3-8-7-13-19 2 7 4 7 7 8 4 5 9 3 6 5 2 9v9l-3 11-3 1 3-13v-7l-3-10-3-2-9-1-2 1-4-10-7-9-4-3-4-16-3-15-4-3-8-2-25 2-17 3-15 4h-11l2-2 14-3 9-5 7-7 5-10 2-10v-21l-1-11-5-12-4-6-8-7-7-4-4-1h-21v2l-14 7-10 9-6 8-8 17-1-4 5-13 6-8 4-6 8-6zm66 5-15 6-2 2v7l4 11 4 18-1 13-4 14-5 8v5l1 1h7l6-2 13-1 11 1 5 1 1-7v-2h4l1 24 3 9 5 10 7 9 5 6 8 5 3 1h12l8-4v-2h2l6-12 3-15 3-29v-24l-1-3h-2l-2-6-6-8-11-7-10-5h-2v-2l-11-5-18-8-16-8-3-1z" fill="#69696A"/>
<path transform="translate(645,529)" d="m0 0 4 1 12 1 3 3 4 22 7 24 8 19 13 25 1 7-4 6-3 3-4-2-7-10-11-19-8-19-8-24-1-10h-2l-3-12-1-10-1-4z" fill="#A4A5A6"/>
<path transform="translate(608,220)" d="m0 0 11 3-2 5-1 2h-2l-2 4-10 14-7 15-2 9-1 9v18l2 13 6 17 7 11 9 10 14 11 17 9 31 12 11 4 18 2h46l20-1 35-5 19-5 13-5h3v2l-24 8-15 3-31 5-16 1h-56l-17-2-4-1-27-2-23-4-19-5-16-6-26-13-10-8-8-10-5-11-2-6v-21l2-5 2 2 1 19 5 15 8 11 9 8 13 8 18 8 16 5 25 6 16 3h8l-12-6-18-8-12-6-16-15-9-11-8-16-4-16v-29l5-16 5-10 12-17 1-4-4 1-8 6-3 3-2-1 4-5 7-7-10 2-23 11-5 3-2-1 10-6 19-10z" fill="#6A6A6B"/>
<path transform="translate(989,393)" d="m0 0h2v7l-9 10h-2v2h-2v2l-5 2v2l-10 7-8 6-18 11-19 10-18 7-10 4-24 7-29 7-16 2-26 4-20 3-15 1h-50l-31-2-23-3-31-7-2-2 8 1 17 3 13 2 41 3h56l49-4 11-2h4v-2l32-8 21-6 8-3 12-3 21-9 19-10 16-10 12-8 10-9 8-7z" fill="#A3A4A5"/>
<path transform="translate(895,540)" d="m0 0h8l11 4 2 16 4 15 7 20 9 20 5 11 1 6-6 11-4-1-18-32-8-18-6-22-5-24z" fill="#A3A4A5"/>
<path transform="translate(463,736)" d="m0 0 3 3-6 9-8 7-9 7-8 3-14 3-5 1-4 1h-19l-15-4-10-5-3-3-1-9 1-1h13l11 1h20l18-2 19-4 13-5z" fill="#FCFCFC"/>
<path transform="translate(737,198)" d="m0 0h17l-3 3-30 5-28 8-18 8-16 9-9 7-6 7h-2l-2 4-10 13-4 5-5 4-2 3-1 8v29l1 4-2 3-6-11-2-12v-15l4-16 5-9 8-11 10-10 13-9 14-8 22-9 22-6 15-3z" fill="#FCFCFC"/>
<path transform="translate(1029,736)" d="m0 0 24 8 22 4 9 1h27l10-1h9v6l-6 7-10 5-12 3h-19l-14-2-15-3-9-5v-2l-4-2-10-9-3-6z" fill="#FCFCFC"/>
<path transform="translate(1108,547)" d="m0 0h15l14 5 11 9 1 3 3 1 7 11 5 14 1 7v19h-2l-1-24-4-12-6-11-11-11-12-7-7-2h-12l-9 3-9 7-6 7-4 8-1 4v19l4 9 4 8 4 10 4 2 13 5h9l7 2h9l6-1 3 2 1 4-4 5-14 6-6 1h-15l-9-2v-2l14 2v-2l-10-2-13-8-6-7-7-14v-33l3-9 6-10 6-7 9-6z" fill="#A6A7A8"/>
<path transform="translate(982,504)" d="m0 0h1v13l-2 19-4 11-7 9-4 4-6 2h-5l-4-10-8-5-13-6-17-5-14-3-16-3h-45l-12 2-18 5-6 2-11 1-12-8-9-4v-1l6-1 10 2 7 3h6l13-4 21-4 10-1h37l24 4 15 4 18 7 16 6 5 4 4 7 5-2 7-8 4-10 3-29z" fill="#6A6A6B"/>
<path transform="translate(508,496)" d="m0 0h2l4 16 4 13v2l4-1 1-14 5 5 4 6 7 4 11-2 23-6 19-3 18-1h25l27 3 18 6 12 6v1l-7-1-17-5-7-2-33-2h-35l-10 3-8 1-13 4-14 6-6 9-2 9-2 1-11-7-5-5-6-9-3-7-5-25z" fill="#6A6A6B"/>
<path transform="translate(602,475)" d="m0 0h18l35 7 11 5 3 3 8 5v2l-31-3-51-2h-12l-19 1-4-2 8-6 20-7z" fill="#2A2A2A"/>
<path transform="translate(373,547)" d="m0 0h16l8 3 10 8 5 6 5 11 1 3 1 11v21l-2 10-5 10-9 9-8 4-14 3h9l8-2h4v2l-11 3h-21l-10-3-8-5-2-4v-4l3-1 7 2 11-1 13-2 9-4 5-3h2v-2h2l2-4 2-7h2l1-6 3-7 1-5v-18l-6-12-7-7-9-6-5-1h-18v-1z" fill="#A6A7A8"/>
<path transform="translate(698,227)" d="m0 0h7l-2 4-19 9-13 8h-2v2l-9 6-2 3h-2v2h-2v3h-2l-1 5 2 5-6 10h-2l-2 5-6 9-5 8h-4l-1-4v-9l1-11 5-12 7-12 5-6 16-12 9-5 10-5z" fill="#6A6A6B"/>
<path transform="translate(736,548)" d="m0 0h13l18 4 12 4 2 4-1 46-7-1-1-36-29-3 2-2 17-1-1-3-8-2h-18l-9 4-2 1-4 36-1 5h-6l-1-2 2-36 2-12 8-3z" fill="#666667"/>
<path transform="translate(611,530)" d="m0 0h9l2 18 3 9v8h2l3 12 5 14 12 24 10 16v2h2v3h2l2 3v3h2l3 7h-11l-7-11-8-13-9-16-9-19-8-21-5-18-1-1-2-19z" fill="#F8F9F9"/>
<path transform="translate(869,487)" d="m0 0h24l19 4 15 6 12 6 6 4v2l-16-1-8-2-18-2-15-2-65-1 3-2 25-8z" fill="#2A2A2A"/>
<path transform="translate(846,538)" d="m0 0h8l2 14 8 30 8 22 8 17 9 15 10 15 2 5-5 1-5-3-10-14-2-5h-2l-6-11-8-16-4-7-5-14-3-8-6-23-1-1-2-15z" fill="#FAFAFA"/>
<path transform="translate(1115,545)" d="m0 0 13 2 2 2-7-1h-15l-9 3-6 4-6 5-7 11-3 6-1 5v33l7 14 6 7 12 7 10 3v2h-9l-10-4-4-2h-10l-23-4-13 1-6 4-3 5-2 12h-2l1-10h-2v-22l3-3 5 1-3 4v4l7-1h21l16 3-3-9-4-10-2-7v-22l5-20 3-8-4-4-10-4-11-1-9 2-20 10-2-1 13-8 8-4 5-1h10l11 2 9 5 4 5h2l3-1v-2l4-3h2v-2l10-6 3-1z" fill="#666667"/>
<path transform="translate(864,538)" d="m0 0 5 1 4 23 6 21 5 14 7 14 4 10 9 16 9 14 2 6h-6l-5-5-11-17-8-13-11-21-7-19-7-27-2-11v-5z" fill="#FBFBFB"/>
<path transform="translate(601,531)" d="m0 0 3 3 4 20 12 36 3 5 3 8 7 15 7 12 10 13 2 5h-10l-2-2v-3h-2v-3h-2l-4-7-1-4h-2v-3h-2l-10-18-6-11-3-8-2-5v-3h-2l-8-32-2-16z" fill="#F9F9F9"/>
<path transform="translate(468,729)" d="m0 0 4 1v8l-5 12-9 10-8 6-15 6-17 4h-20l-15-3-10-4-9-7-4-7v-6l2-3h12l9 1h26l15-2 19-4 15-6zm-5 7-20 8-22 4-12 1h-20l-11-1h-13l-1 1 1 9 6 5 13 5 9 2h19l8-1 21-6 10-7 12-12 3-6z" fill="#A6A7A8"/>
<path transform="translate(1021,729)" d="m0 0 7 1 17 9 13 4 26 4h27l15-2h5l2 3v7l-6 9-10 6-13 4-6 1h-26l-17-4-16-8-11-11-6-11-1-4zm8 7-1 4 4 7 10 9 3 1 1 3 11 5 16 3 10 1h21l15-5 8-6 3-4v-6h-9l-10 1h-27l-19-3-16-3-14-5z" fill="#A6A7A8"/>
<path transform="translate(519,559)" d="m0 0h6l15 9 2 4v16l1 23 2 8v7l-2-1-2-6-2 9-2 17-2 4-1 8h-1v-9l3-22v-16l-2-10-4-9-8-7-3-12-1-10z" fill="#919293"/>
<path transform="translate(917,286)" d="m0 0 2 1 2 21v9l-4 25-8 16-7 12-6 8-5 6-8 7-20 14-21 11-16 6-13 4h-4v-3l12-3 17-7 24-13 11-8 9-8h2l2-4h2l2-4h2l2-4 9-14 6-12 5-16 2-19v-23z" fill="#2A2A2A"/>
<path transform="translate(833,273)" d="m0 0 8 1 11 6 9 8 7 9 4 9v17l-4 8h-2l-2 4-10 8-6 1 1-5 7-11 3-8v-16l-5-13-5-6-12-8z" fill="#FCFCFC"/>
<path transform="translate(859,537)" d="m0 0h10v2h-11l6 29 7 23 8 18 9 17 6 9 11 17 4 4 6 1-3-6-9-14 1-2 7 10 6 9-1 5h-18l-7-3-9-12-1-4 4 4 8 11 7 1-2-5-10-15-9-15-10-22-8-24-6-23 1-10-1-2 1-2z" fill="#7A7A7B"/>
<path transform="translate(741,550)" d="m0 0h9l15 3 4 1 7 1 5 3-1 48-7-1-1-36-29-3 2-2 17-1-1-3-4-2v-1h6v-2l-14-2h-13l-8 1 1-2z" fill="#6B6B6C"/>
<path transform="translate(609,806)" d="m0 0 6 2 7 5 3 3v2h2v2l4 2 9 11 11 12 10 14 6 10v2l-5-1-5-5-6-7-3-2v-2h-2l-9-11-9-10-8-10-9-11-2-3z" fill="#6A6A6B"/>
<path transform="translate(612,528)" d="m0 0h6l1 2-11 1 2 11 1 8 3 8 5 16 10 25 12 23 11 18 3 4-1 2h-3l-10-13-6-9-8-16-3-7-4-9-9-25-6-21-1-5v-7h1l2 11-1-15z" fill="#747576"/>
<path transform="translate(328,591)" d="m0 0h1l2 68 4 14 7 9 10 5 15 5 25 4h37v2l-8 2-11 1h-20l-13-1-20-5-16-6h-6l1-3 5-1-4-5v-2l-4-2-4-11-1-11z" fill="#69696A"/>
<path transform="translate(588,232)" d="m0 0h3l-1 5-9 13-8 16-4 14-1 26-3-1-1-2-1-13 2-20 7-21-5-2 1-5 14-8z" fill="#FCFCFC"/>
<path transform="translate(897,551)" d="m0 0 2 3 5 19 6 14 8 16 9 14v2h2l3 7 1 3h-2l1 7 2 3 2-7 1-1v-7l-4-9-2-5 1-3 9 19 1 6-6 11-4-1-18-32-8-18-6-22-3-13z" fill="#6B6B6C"/>
<path transform="translate(658,292)" d="m0 0h3l1 9 3 19 4 8 9 10 2 1v2l4 2 8 6 8 4 2 2-1 3-8-1-6-3-9-7-9-10-2-6-3-1-6-8-3-9v-15l2-5z" fill="#A5A6A7"/>
<path transform="translate(817,200)" d="m0 0h11l26 5 20 7 8 5 1 3 1 12-6-3-9-7-3-1-1-2-11-5-20-8-15-4z" fill="#FCFCFC"/>
<path transform="translate(640,696)" d="m0 0 1 3 5 2 4 9 13 28 10 14 5 6 14 10 19 8 27 5h13l19-3 15-5 12-7 9-7 10-10v3l-7 8-13 10-16 8-21 5-10 1h-9l-25-4-15-5-14-7-13-11-11-15-12-25-5-13v-2l-9 1v-4z" fill="#6A6A6B"/>
<path transform="translate(623,473)" d="m0 0 8 1 17 3 13 2 41 3h56l34-3h8v1l-26 3-15 1-38 1h54v1l-15 1h-50l-31-2-23-3-31-7z" fill="#9E9FA0"/>
<path transform="translate(521,561)" d="m0 0 9 3 9 6 1 5-1 21-2 3-5-10-2-3-5-3-4-16z" fill="#FCFCFC"/>
<path transform="translate(755,267)" d="m0 0h36l14 2 15 5 8 5-2 1-17-5-13-2-25-1h-15l-22 4-10 2-2-1 10-4 15-3h7z" fill="#69696A"/>
<path transform="translate(532,657)" d="m0 0h1l7 47 3 12 6 10 9 10 14 8 14 7 13 5 17 6 33 11 23 6 11 3-4 1-33-8-26-8-21-8-21-9-17-9-11-9-7-11-4-10-6-37z" fill="#6A6A6B"/>
<path transform="translate(725,196)" d="m0 0h10v1l-14 2h-5v2l-24 6-19 5-19 8-13 8-10 8-9 9-7 11-5 12-2 10v17l3 14 5 12v3l-5-8-3-9-3-19 1-13 3-12 8-16 11-12 8-7 9-6 10-6 16-6 10-3 4-2 13-3 6-2z" fill="#6A6A6B"/>
<path transform="translate(679,209)" d="m0 0 3 1-23 10-13 8-11 8-10 10-7 10-5 11-3 13v15l1 12-2-1-2-11v-17l3-13 8-16 11-12 9-8 11-7 16-8z" fill="#A6A7A8"/>
<path transform="translate(582,850)" d="m0 0h6l3 7-1 19-4 6-5-2-3-5 1-13 2-11z" fill="#A6A7A8"/>
<path transform="translate(1e3 704)" d="m0 0 5 1 3 6 5 8v12l-4 2-5-3-6-8-1-7v-8z" fill="#FCFCFC"/>
<path transform="translate(527,438)" d="m0 0h7l6 4v5l-5 3h-2l-2 13-2 2-7-1-6-4v-5l8-3 2-5z" fill="#A6A7A8"/>
<path transform="translate(471,741)" d="m0 0 1 4-6 10-5 6-13 9-10 4-11 3-15 1h-13l-15-2-17-8-6-7-2-3v-3h2l6 9 10 6 14 4 7 1h20l17-4 15-6 11-9 6-8z" fill="#6A6A6B"/>
<path transform="translate(575,532)" d="m0 0 5 1 2 7 6 24 6 19-1 3-6-16-6-22-2-14-20 6-2 1 1 9 8 28 6 15 8 16 6 11-1 2-9-16-8-15-8-21-6-24v-6l6-4z" fill="#8F9091"/>
<path transform="translate(845,470)" d="m0 0h5v2l-18 5-30 5-22 3-29 1h-30l-14-1v-1l52-1 34-3 25-4z" fill="#FCFCFC"/>
<path transform="translate(882,617)" d="m0 0 4 5 11 18 8 12 4 4 6 1-3-6-9-14 1-2 7 10 6 9-1 5h-18l-7-3-9-12-1-4 4 4 8 11 7 1-2-5-10-15-1-4-3-7-3-6z" fill="#A0A1A2"/>
<path transform="translate(490,705)" d="m0 0 5 1 1 2v10l-4 10-5 4-5-1-1-1v-10l4-7z" fill="#FCFCFC"/>
<path transform="translate(895,540)" d="m0 0h8l11 4 2 16v5l-2-4-2-11-1-4-6-3h-3l4 7 5 16 4 13 9 22-1 2-3-4-8-17-10-29-3-10 1-2h-4l1 10h-1z" fill="#6A6A6B"/>
<path transform="translate(627,874)" d="m0 0 5 1 3 5v21l-5 2-5-5v-20z" fill="#A6A7A8"/>
<path transform="translate(751,255)" d="m0 0h26l22 2 22 5 19 8 1 2-6-2-16-6-18-4-12-2h-45l-25 5-13 5-10 6-7 7v-3l7-7 11-6 12-5 19-4z" fill="#6A6A6B"/>
<path transform="translate(827,679)" d="m0 0 4 2 11 16 8 10 2 4h-12l-8 15-6 12-8 11v-3l10-17 9-19 2-2 9 1-7-8-6-7-6-12v7l1 10-7 5-13 5-3-1 18-8 2-1v-9l-1-10z" fill="#888889"/>
<path transform="translate(612,528)" d="m0 0h6l1 2-11 1 2 11 2 16 9 26 3 12-4-4-9-25-6-21-1-5v-7h1l2 11-1-15z" fill="#5A5A5B"/>
<path transform="translate(464,662)" d="m0 0h2l5 12 11 14 2 2 9 3 6 5 2 9v9l-3 11-3 1 3-13v-7l-3-10-3-2-9-1-2 1-4-10-7-9-4-3z" fill="#6A6A6B"/>
<path transform="translate(657,672)" d="m0 0 3 1v10l-2 9 5 4 16 8 11 5 12 4 16 3 10 1 44 1v1h-50l-16-3-17-5-22-10-11-7-1-5 3-10v-4l-2-1z" fill="#939495"/>
<path transform="translate(778,625)" d="m0 0 4 1 3 7 3 10 6 8v2h2l3 6 2 3v2l-5-2-6-5-6-12-6-14v-2h-5v-2z" fill="#F7F7F7"/>
<path transform="translate(801,195)" d="m0 0h13l28 4 16 4 16 5 31 13 14 8 12 9h-3l-14-9-24-12-23-9-23-6-24-4-19-2z" fill="#6A6A6B"/>
<path transform="translate(488,569)" d="m0 0 5 1 24 13 5 5 6 8 3 7v32l-2 15-2 20-1 2h-2l1-8 4-36v-27h-2l-4-8-5-6-14-8-8-4v-2l-6-2z" fill="#6A6A6B"/>
<path transform="translate(616,324)" d="m0 0 3 1 6 7 12 9 9 6 9 4h3l-7-10-5-10-1-6h2l4 11 4 6 10 13-1 2-10-3-12-6-16-12-7-6z" fill="#6A6A6B"/>
<path transform="translate(594,246)" d="m0 0 2 1-1 2h-2l-1 5-8 15-6 16-3-1 1-11 8-16 3-5 5-5z" fill="#FCFCFC"/>
<path transform="translate(645,529)" d="m0 0 4 1h6l-4 2 5 18 4 13 5 11 2 5 2 9-3-3-10-24-5-14-1-8h-2l-2-6h-2z" fill="#6D6D6E"/>
<path transform="translate(1029,660)" d="m0 0 1 3v14l-5-1-4 5-9 13-13 4-2 5-2 14-2-2 2-16 4-4 9-4 5-5 7-8 6-7 2-10z" fill="#6A6A6B"/>
<path transform="translate(1040,553)" d="m0 0v3l-22 11-13 5-15 7-9 5h-3l5-5 16-8 13-6 12-4z" fill="#9E9FA0"/>
<path transform="translate(700,274)" d="m0 0h3v3l-6 5-4 9-3 11h-3l-2-3 1-10 4-6 8-7z" fill="#FCFCFC"/>
<path transform="translate(859,537)" d="m0 0h10v2h-11l6 29-1 6-3-3-5-19 1-10-1-2 1-2z" fill="#737374"/>
<path transform="translate(843,273)" d="m0 0 5 1 12 7 8 8 5 8 4 11v11l-3 9-8 10-2-1 8-10 2-5v-13l-3-10-7-10-8-8-13-7z" fill="#6A6A6B"/>
<path transform="translate(366,547)" d="m0 0m-1 1 3 2-14 7-10 9-6 8-8 17-1-4 5-13 6-8 4-6 8-6z" fill="#8C8D8E"/>
<path transform="translate(754,269)" d="m0 0h34v1l-32 2-22 4-10 2-2-1 10-4 15-3z" fill="#2A2A2A"/>
<path transform="translate(575,532)" d="m0 0 5 1 2 7 6 24 6 19-1 3-6-16-6-22-2-14-14 4-5-1 4-2z" fill="#8A8A8B"/>
<path transform="translate(674,236)" d="m0 0 1 2-11 7-5 2v2l-11 9-7 8-2-1 6-9 5-5h2v-2l13-9z" fill="#2A2A2A"/>
<path transform="translate(520,560)" d="m0 0 6 1-3 1-2-1 3 15 3 8 4 2 5 8v9l-2-3-4-9-8-7-2-13z" fill="#9C9D9E"/>
<path transform="translate(1130,549)" d="m0 0 6 1 7 3v2l4 2 7 6 9 18 2 7-1 4-6-16-7-11-5-5-9-7-7-3z" fill="#6A6A6B"/>
<path transform="translate(692,336)" d="m0 0 16 4 7 3-1 3h-7l-14-5-2-4z" fill="#A6A7A8"/>
<path transform="translate(847,706)" d="m0 0 3 1 2 4h-12l-8 15-6 12-8 11v-3l10-17 9-19 2-2 9 1z" fill="#6A6A6B"/>
<path transform="translate(598,529)" d="m0 0h5l1 5-3-2-6 2 3 20 5 18-1 4-6-20-4-18v-6l2-2z" fill="#8C8D8E"/>
<path transform="translate(762,192)" d="m0 0h22l17 2v1h-37l-17 1h-12v-1z" fill="#6A6A6B"/>
<path transform="translate(541,451)" d="m0 0h5l2 3-1 6-3 5h-4v-3l-2-1 2-8z" fill="#A6A7A8"/>
<path transform="translate(488,569)" d="m0 0 5 1 24 13 5 5 6 8v5l-2-2-5-9-9-7-16-8v-2l-6-2z" fill="#888889"/>
<path transform="translate(1046,549)" d="m0 0h10l11 2 5 3-2 1-8-3-11-1-9 2-20 10-2-1 13-8 8-4z" fill="#6A6A6B"/>
<path transform="translate(568,310)" d="m0 0h6l2 10-1 5-4-1-3-6z" fill="#FCFCFC"/>
<path transform="translate(725,196)" d="m0 0h10v1l-14 2h-5v2l-24 6-7 1 3-2h3v-2l13-4z" fill="#818283"/>
<path transform="translate(862,570)" d="m0 0 3 1 5 17v6h-3l-6-19z" fill="#818182"/>
<path transform="translate(562,573)" d="m0 0 1 2h2l7 18 8 16 6 11-1 2-9-16-8-15-6-15z" fill="#8B8C8D"/>
<path transform="translate(741,550)" d="m0 0h9l15 3 7 2 2 3-25-5h-13l-8 1 1-2z" fill="#A6A7A8"/>
<path transform="translate(530,264)" d="m0 0 2 1-10 10-10 14-8 15h-2l2-6 10-16 9-11z" fill="#6A6A6B"/>
<path transform="translate(1071,584)" d="m0 0 2 2v27l-3-4v-21z" fill="#2A2A2A"/>
<path transform="translate(519,559)" d="m0 0h6l15 9 2 4-1 4-2-2-2-5-11-6v-2l-6-1 1 16-2-4-1-10z" fill="#7B7B7C"/>
<path transform="translate(745,235)" d="m0 0m-7 1h7l-1 2-24 5-10 2 2-3 6-2z" fill="#6A6A6B"/>
<path transform="translate(1079,742)" d="m0 0 10 1 12 2v1h-23l-6-2v-1z" fill="#2A2A2A"/>
<path transform="translate(657,672)" d="m0 0 3 1v10l-2 9 5 4 7 4-1 2-13-8-1-5 3-10v-4l-2-1z" fill="#8C8D8E"/>
<path transform="translate(410,742)" d="m0 0h13l1 2-8 2h-17v-1z" fill="#2A2A2A"/>
<path transform="translate(802,425)" d="m0 0h2l-1 3-3 1-12 1-5 2h-8l3-3z" fill="#2A2A2A"/>
<path transform="translate(538,625)" d="m0 0 1 3-2 17-2 4-1 8h-1v-9l3-22z" fill="#888889"/>
<path transform="translate(1e3 568)" d="m0 0 3 1-6 3h-2v2l-16 8-4 3-2-1 5-5 16-8z" fill="#7E7E7F"/>
<path transform="translate(685,205)" d="m0 0h6l-3 2h-3v2l-12 3-17 7-2-1 5-3 15-6z" fill="#6C6C6D"/>
<path transform="translate(366,547)" d="m0 0m-1 1 3 2-20 10-6 5 2-5 8-6z" fill="#7C7C7D"/>
<path transform="translate(687,653)" d="m0 0 4 2v2l-4 2h-16l2-2 12-3z" fill="#FCFCFC"/>
<path transform="translate(871,593)" d="m0 0 2 3 9 19-1 3-3-3-5-11-2-4z" fill="#A2A3A4"/>
<path transform="translate(870,328)" d="m0 0v3l-5 6-1 3-6 4-6 1 5-5 4-2 1-3z" fill="#979899"/>
<path transform="translate(903,635)" d="m0 0 5 5 9 14-1 5h-9l-4-2h11l-2-6-9-14z" fill="#848485"/>
<path transform="translate(835,689)" d="m0 0 5 5 7 9 2 3-5-1-9-11z" fill="#919192"/>
<path transform="translate(1136,755)" d="m0 0 1 3-4 6-8 7-6 3 2-4 8-6 4-4z" fill="#3C3C3C"/>
<path transform="translate(696,627)" d="m0 0 1 4-4 6-3 3-3-1 2-2 2-8 4 1z" fill="#6D6D6E"/>
<path transform="translate(655,531)" d="m0 0h6l-1 2 2 8-1 4-3-3z" fill="#6A6A6B"/>
<path transform="translate(488,569)" d="m0 0 5 1 19 10-4 1-12-6v-2l-6-2z" fill="#7D7D7E"/>
<path transform="translate(912,602)" d="m0 0 2 1 3 6 2 1 2 8-4-2-5-10z" fill="#949596"/>
<path transform="translate(547,628)" d="m0 0 3 4 7 10 5 6-4-2-7-7-4-8z" fill="#6A6A6B"/>
<path transform="translate(1018,564)" d="m0 0m-6 1h6v2l-13 5-5 1 4-3 4-1 1-3z" fill="#989899"/>
<path transform="translate(859,562)" d="m0 0 4 2 1 6-2 4-3-6z" fill="#636364"/>
<path transform="translate(827,679)" d="m0 0 4 2 4 6v5l-3-3-3-7-2-1-1 3z" fill="#898A8B"/>
<path transform="translate(879,619)" d="m0 0 3 1 2 4 2 2 3 9h-2l-8-14z" fill="#7E7E7F"/>
<path transform="translate(650,684)" d="m0 0v3l-7 8-5 2 4-5 5-5z" fill="#949596"/>
<path transform="translate(770,554)" d="m0 0 9 2 2 4-7-1z" fill="#868687"/>
<path transform="translate(582,232)" d="m0 0m-2 1h2v2l-10 6-3-1 5-4z" fill="#A6A7A8"/>
<path transform="translate(421,588)" d="m0 0h2l1 5v8l-2 2-1-10z" fill="#2A2A2A"/>
<path transform="translate(509,430)" d="m0 0 3 2-2 5-3 1-1-3 1-4z" fill="#A6A7A8"/>
<path transform="translate(521,576)" d="m0 0 2 3 3 6 5 4-1 2-8-7z" fill="#6A6A6B"/>
<path transform="translate(988,577)" d="m0 0 3 1-10 6h-3l5-5z" fill="#8D8E8F"/>
</svg>
